<svg xmlns="http://www.w3.org/2000/svg" viewBox="0 0 32 32">
  <rect width="32" height="32" rx="7" fill="#0B0E11"/>
  <path d="M11 8h10v2.5a3.5 3.5 0 0 1-1 2.45 5.5 5.5 0 0 1-3 1.5v2.05h2.5v2H12.5v-2H15v-2.05a5.5 5.5 0 0 1-3-1.5A3.5 3.5 0 0 1 11 10.5V8z" fill="#8FBF3F"/>
  <path d="M11 8H8v2a2.5 2.5 0 0 0 2.5 2.5" stroke="#8FBF3F" stroke-width="1.2" fill="none" stroke-linecap="round"/>
  <path d="M21 8h3v2a2.5 2.5 0 0 1-2.5 2.5" stroke="#8FBF3F" stroke-width="1.2" fill="none" stroke-linecap="round"/>
  <rect x="11.5" y="20.5" width="9" height="2.2" rx="1.1" fill="#8FBF3F"/>
</svg>